<svg width="203" height="60" viewBox="0 0 203 60" fill="none" xmlns="http://www.w3.org/2000/svg">
<path d="M0 0.275391H4.84406C7.62283 0.275391 9.44404 2.19674 9.44404 4.73768C9.44404 7.27862 7.47888 9.21875 4.74393 9.21875H3.90529V6.84053H4.3559C5.85168 6.84053 6.69031 6.05196 6.69031 4.73768C6.69031 3.4234 5.87045 2.6536 4.3559 2.6536H2.7287V13.124H0V0.275391Z" fill="#F28000"/>
<path d="M10.4705 6.70282C10.4705 3.23563 13.0239 0 17.1357 0C21.2476 0 23.801 3.22937 23.801 6.70282C23.801 10.1763 21.2476 13.4056 17.1357 13.4056C13.0239 13.4056 10.4705 10.1763 10.4705 6.70282ZM21.041 6.70282C21.041 4.5812 19.5515 2.64733 17.1295 2.64733C14.7074 2.64733 13.2179 4.5812 13.2179 6.70282C13.2179 8.82445 14.7074 10.7583 17.1295 10.7583C19.5515 10.7583 21.041 8.82445 21.041 6.70282Z" fill="#F28000"/>
<path d="M25.7098 0.275391H31.0546C35.2603 0.275391 37.7011 3.22939 37.7011 6.70284C37.7011 10.1763 35.2415 13.1303 31.0358 13.1303H25.7098V0.281646V0.275391ZM31.0358 10.5643C33.3514 10.5643 34.9474 8.99345 34.9474 6.69659C34.9474 4.39972 33.3702 2.83511 31.0546 2.83511H28.4448V10.5643H31.0358Z" fill="#F28000"/>
<path d="M39.6224 0.275391H44.9672C49.1729 0.275391 51.6137 3.22939 51.6137 6.70284C51.6137 10.1763 49.1541 13.1303 44.9484 13.1303H39.6224V0.281646V0.275391ZM44.9421 10.5643C47.2578 10.5643 48.8537 8.99345 48.8537 6.69659C48.8537 4.39972 47.2766 2.83511 44.9609 2.83511H42.3574V10.5643H44.9484H44.9421Z" fill="#F28000"/>
<path d="M55.4939 1.58963C55.788 0.632082 56.4827 0.0500488 57.4778 0.0500488C58.4729 0.0500488 59.1676 0.63834 59.4617 1.58963L63.004 13.1303H60.2128L59.3929 10.3703H55.5377L54.7241 13.1303H51.9453L55.5001 1.58963H55.4939ZM58.8171 8.10471L57.4653 3.51724L56.1135 8.10471H58.8109H58.8171Z" fill="#F28000"/>
<path d="M64.4247 0.275391H69.6631C72.373 0.275391 74.0941 2.36572 74.0941 4.58122C74.0941 6.59019 73.0301 7.92325 71.4154 8.63672L74.4258 13.124H71.2152L69.3501 10.1513C68.9559 9.50664 68.7368 9.08732 68.7368 8.52406C68.7368 7.76053 69.0685 7.20978 69.8008 6.87182C70.7583 6.45876 71.3779 5.79536 71.3779 4.7502C71.3779 3.46721 70.533 2.70367 68.9371 2.70367H67.1534V13.124H64.4185V0.275391H64.4247Z" fill="#F28000"/>
<path d="M9.13112 44.792C6.57766 44.792 5.21957 44.1661 3.34829 42.2948L2.15917 41.1057C0.513195 39.4597 0.00625847 38.1017 0.00625847 35.7735V31.3488C0.00625847 28.7953 0.57578 27.3246 2.32815 25.5659L5.10692 22.7872C6.92188 20.9722 8.27997 20.29 10.9461 20.29H28.5199C29.709 20.29 30.2785 20.8533 30.2785 22.0487V27.6625C30.2785 28.8516 29.709 29.4212 28.5199 29.4212H13.2116C12.4731 29.4212 11.9662 29.6465 11.5093 30.1033L10.8272 30.7855C10.314 31.2987 10.145 31.693 10.145 32.4315V33.001C10.145 33.5142 10.314 33.9085 10.8272 34.4154L11.1088 34.697C11.5594 35.1539 12.0163 35.3792 12.6421 35.3792H22.1112C24.6647 35.3792 26.0227 36.0051 27.894 37.8763L29.0831 39.0655C30.7291 40.7115 31.2361 42.0695 31.2361 44.3977V48.9351C31.2361 51.4885 30.6665 52.9593 28.9079 54.7179L26.1855 57.4967C24.3705 59.3116 22.9561 59.9938 20.29 59.9938H1.75863C0.569521 59.9938 0 59.4243 0 58.2352V52.6213C0 51.4322 0.569521 50.8627 1.75863 50.8627H18.0307C18.7692 50.8627 19.2761 50.6374 19.733 50.1805L20.4152 49.4983C20.9283 48.9914 21.0973 48.5909 21.0973 47.8524V47.1702C21.0973 46.6633 20.9283 46.2627 20.4152 45.7558L20.1335 45.4741C19.6829 45.0235 19.226 44.792 18.6002 44.792H9.13112Z" fill="#171796"/>
<path d="M67.5853 59.9875C65.545 59.9875 64.6939 59.4743 64.4123 57.7219L60.9513 35.3228C60.895 34.9286 60.3255 34.9286 60.2691 35.3228L56.8082 57.7219C56.5266 59.4806 55.6754 59.9875 53.6915 59.9875H42.8643C40.8804 59.9875 39.9729 59.418 39.7476 57.7219L35.0412 22.3428C34.8722 21.1536 35.2665 20.3025 36.6872 20.3025H43.4902C44.7919 20.3025 45.4178 20.7531 45.5868 22.3428L48.4782 49.8425C48.5345 50.2368 49.104 50.2368 49.1603 49.8425L53.6977 22.3428C53.9794 20.7531 54.6052 20.3025 55.907 20.3025H65.3197C66.6215 20.3025 67.2473 20.7531 67.529 22.3428L72.0664 49.8425C72.1227 50.2368 72.6922 50.2368 72.7486 49.8425L75.64 22.3428C75.8089 20.7531 76.4348 20.3025 77.7366 20.3025H84.5395C85.9602 20.3025 86.3545 21.1536 86.1855 22.3428L81.4791 57.7219C81.2538 59.4242 80.3463 59.9875 78.3624 59.9875H67.5916H67.5853Z" fill="#171796"/>
<path d="M91.1672 58.229V22.055C91.1672 20.8659 91.7368 20.2964 92.9259 20.2964H114.474C117.14 20.2964 118.498 20.9786 120.313 22.7935L122.522 25.0028C124.337 26.8177 124.85 28.2885 124.85 30.4476V35.2103C124.85 37.6512 124.337 38.615 122.522 40.4299L119.743 43.2087C119.293 43.6656 119.349 44.1161 119.631 44.7983L125.583 58.0663C126.096 59.1991 125.583 59.9939 124.281 59.9939H116.683C115.663 59.9939 115.037 59.5433 114.643 58.6358L109.88 48.1466C109.598 47.4644 109.254 47.2391 108.459 47.2391H102.395C102.001 47.2391 101.825 47.4081 101.825 47.8087V58.2415C101.825 59.4306 101.256 60.0002 100.067 60.0002H92.9259C91.7368 60.0002 91.1672 59.4306 91.1672 58.2415V58.229ZM110.5 38.6713C111.407 38.6713 111.858 38.446 112.484 37.8201L113.391 36.9127C114.017 36.2868 114.186 35.8362 114.186 34.9287V32.0373C114.186 31.1298 114.017 30.6792 113.391 30.0534L112.653 29.3149C112.027 28.689 111.52 28.4637 110.612 28.4637H102.389C101.994 28.4637 101.819 28.6327 101.819 29.0332V38.108C101.819 38.5023 101.988 38.6713 102.389 38.6713H110.5Z" fill="#171796"/>
<rect x="132.037" y="20.29" width="70.1763" height="26.4358" rx="13.2179" fill="#E0AF40"/>
<path d="M147.809 40.1795C146.814 40.1795 145.981 39.9668 145.312 39.5349C144.642 39.1031 144.135 38.4835 143.803 37.6699C143.472 36.8563 143.303 35.8737 143.303 34.7347V32.4378C143.303 30.5165 143.822 29.052 144.861 28.0506C145.9 27.0493 147.415 26.5486 149.411 26.5486C150.024 26.5486 150.594 26.5924 151.12 26.68C151.645 26.7676 152.121 26.874 152.553 27.0117C152.985 27.1494 153.36 27.2996 153.679 27.4623L153.955 30.1597C153.435 29.9282 152.859 29.7216 152.221 29.5401C151.583 29.3586 150.85 29.271 150.031 29.271C148.829 29.271 147.953 29.5402 147.396 30.0846C146.839 30.6291 146.557 31.474 146.557 32.6256V34.7722C146.557 35.6296 146.757 36.293 147.164 36.7624C147.571 37.2318 148.203 37.4696 149.061 37.4696C149.442 37.4696 149.774 37.4133 150.056 37.3007C150.337 37.188 150.575 37.0378 150.763 36.8563C150.951 36.6748 151.101 36.4683 151.207 36.243V33.7521L151.627 34.6909L149.111 34.7034V32.2376H154.274V37.7262H151.145C151.044 38.1956 150.869 38.6149 150.631 38.9904C150.387 39.3597 150.043 39.6538 149.586 39.8666C149.136 40.0794 148.541 40.1858 147.803 40.1858L147.809 40.1795ZM151.182 39.8979L151.282 37.213H154.274V39.8979H151.176H151.182Z" fill="white"/>
<path d="M161.778 40.2109C159.875 40.2109 158.455 39.7352 157.503 38.7777C156.552 37.8264 156.076 36.4495 156.076 34.6596V32.175C156.076 30.3788 156.552 28.9894 157.509 28.0131C158.467 27.0368 159.888 26.5486 161.778 26.5486C163.668 26.5486 165.089 27.0368 166.046 28.0131C167.004 28.9894 167.479 30.3788 167.479 32.175V34.6596C167.479 36.4495 167.004 37.8264 166.046 38.7777C165.095 39.7289 163.668 40.2109 161.778 40.2109ZM161.778 37.576C162.604 37.576 163.217 37.332 163.618 36.8501C164.018 36.3681 164.219 35.686 164.219 34.816V32.0185C164.219 31.1048 164.018 30.4038 163.618 29.9156C163.217 29.4275 162.604 29.1834 161.778 29.1834C160.952 29.1834 160.338 29.4275 159.938 29.9156C159.537 30.4038 159.337 31.111 159.337 32.0185V34.816C159.337 35.686 159.537 36.3681 159.938 36.8501C160.338 37.332 160.952 37.576 161.778 37.576Z" fill="white"/>
<path d="M172.649 26.8364V39.8979H169.451V26.8364H172.649ZM171.272 39.8979V37.213H178.1V39.8979H171.272Z" fill="white"/>
<path d="M182.963 39.8979H179.815V26.8364H182.963V39.8979ZM185.015 39.8979H182.049V37.2192H184.903C185.723 37.2192 186.336 37.0002 186.743 36.5558C187.15 36.1115 187.356 35.4794 187.356 34.6533V32.0372C187.356 31.2111 187.15 30.579 186.743 30.1409C186.336 29.7028 185.723 29.4837 184.903 29.4837H182.043V26.8364H185.015C186.874 26.8364 188.264 27.287 189.19 28.182C190.11 29.077 190.573 30.3662 190.573 32.0372V34.6658C190.573 36.3493 190.11 37.6386 189.196 38.546C188.276 39.4473 186.881 39.8979 185.015 39.8979Z" fill="white"/>
</svg>
